<svg xmlns="http://www.w3.org/2000/svg" width="1024" height="1024" viewBox="0 0 1024 1024">
<g>
<path d="M 524.00 568.15 C524.00,569.24 428.17,569.01 417.50,567.90 C367.05,562.64 324.17,533.28 302.97,489.50 C292.84,468.57 288.65,449.98 289.21,428.50 L 289.50 417.50 L 291.31 420.82 C292.79,423.53 293.39,423.92 294.56,422.95 C295.35,422.29 296.00,421.29 296.00,420.72 C296.00,420.14 297.17,417.68 298.60,415.24 L 301.20 410.80 L 303.12 413.95 C305.01,417.06 305.13,417.10 312.38,416.91 C316.42,416.80 320.28,417.05 320.95,417.47 C321.62,417.88 324.71,418.34 327.83,418.50 C330.95,418.65 337.03,419.11 341.36,419.53 C347.59,420.12 349.39,419.99 350.07,418.89 C350.72,417.84 353.84,417.47 362.71,417.37 C369.20,417.30 378.62,417.14 383.65,417.00 C388.68,416.87 393.25,417.04 393.81,417.38 C394.37,417.73 394.98,417.63 395.16,417.16 C395.35,416.70 397.01,416.02 398.87,415.66 C402.01,415.05 402.19,415.15 401.55,417.25 C398.45,427.45 398.60,433.26 402.15,440.74 C404.93,446.57 412.03,452.58 418.34,454.41 C423.17,455.82 425.80,458.22 459.92,492.46 C479.95,512.56 495.98,529.00 495.53,529.00 C495.09,529.00 496.35,530.29 498.33,531.87 C500.31,533.44 501.65,535.02 501.30,535.37 C500.95,535.71 501.49,536.00 502.50,536.00 C503.51,536.00 504.05,536.29 503.70,536.63 C503.35,536.98 504.69,538.56 506.67,540.13 C508.65,541.71 509.92,543.00 509.48,543.00 C509.05,543.00 509.50,543.90 510.50,545.00 C511.50,546.10 512.89,547.00 513.60,547.00 C515.66,547.00 516.11,548.66 514.43,550.06 C513.57,550.77 513.02,550.87 513.19,550.27 C513.67,548.61 499.05,533.86 497.68,534.64 C497.03,535.02 496.84,534.94 497.26,534.48 C498.17,533.49 494.19,529.00 492.40,529.00 C491.71,529.00 489.99,527.54 488.58,525.75 C487.17,523.96 486.02,523.12 486.01,523.87 C486.00,524.95 485.69,524.99 484.58,524.07 C483.42,523.11 483.25,523.23 483.64,524.72 C483.90,525.74 483.17,527.65 481.99,529.02 C481.53,529.54 481.17,529.92 480.89,530.35 C479.85,531.99 480.07,534.43 481.34,548.69 C481.41,549.50 481.49,550.36 481.57,551.25 C481.98,555.81 481.82,558.00 481.09,558.00 C479.07,558.00 480.00,559.49 483.26,561.48 C487.08,563.81 493.04,565.07 502.00,565.46 C513.25,565.95 524.00,567.26 524.00,568.15 ZM 376.50 734.56 C347.17,744.42 314.02,730.07 300.38,701.62 C288.72,677.28 293.42,648.66 312.16,629.91 C319.90,622.17 326.36,618.22 337.50,614.41 C344.37,612.07 347.12,611.68 357.00,611.67 C370.20,611.65 376.59,613.15 387.50,618.82 C397.51,624.03 408.65,635.35 413.33,645.08 C430.42,680.61 413.31,722.19 376.50,734.56 ZM 351.34 705.00 C364.38,707.69 378.52,700.27 385.63,687.00 C387.08,684.28 387.50,681.38 387.50,674.00 C387.50,666.62 387.08,663.72 385.63,661.00 C382.00,654.24 377.03,649.16 371.24,646.32 C366.29,643.89 364.33,643.50 357.00,643.53 C350.06,643.55 347.63,643.99 343.78,645.94 C331.87,651.96 325.92,661.34 325.78,674.30 C325.72,680.58 326.16,682.80 328.38,687.35 C332.64,696.05 341.67,703.00 351.34,705.00 ZM 534.39 567.50 C534.45,568.05 533.04,568.64 531.25,568.81 C528.08,569.12 526.89,567.80 529.10,566.44 C529.77,566.02 527.54,563.07 523.38,558.88 C518.70,554.17 517.12,552.00 518.34,552.00 C519.32,552.00 519.84,552.45 519.50,553.00 C519.16,553.55 519.50,554.00 520.25,554.00 C521.83,554.00 527.29,559.38 526.51,560.16 C525.87,560.79 529.23,563.92 532.14,565.41 C533.32,566.01 534.33,566.95 534.39,567.50 ZM 609.96 392.69 C611.31,393.92 612.18,395.15 611.89,395.44 C611.16,396.18 604.85,389.36 601.31,384.00 C596.93,377.36 596.89,377.26 598.45,376.66 C599.47,376.27 599.71,376.58 599.28,377.71 C598.86,378.79 599.05,379.09 599.84,378.60 C601.09,377.82 604.06,380.22 604.37,382.27 C604.47,382.95 604.90,384.06 605.33,384.74 C605.88,385.62 605.58,385.79 604.30,385.33 C602.88,384.82 603.03,385.30 605.00,387.57 C606.38,389.16 608.61,391.46 609.96,392.69 ZM 294.20 406.81 C293.92,410.68 293.18,413.07 291.89,414.29 C290.05,416.03 290.00,415.97 290.10,412.29 C290.20,408.12 292.69,397.41 292.88,400.31 C292.95,401.30 293.37,401.89 293.81,401.62 C294.26,401.34 294.44,403.68 294.20,406.81 ZM 300.03 384.56 C299.22,385.63 297.71,387.35 296.67,388.39 C294.81,390.25 294.79,390.22 295.51,386.95 C295.91,385.12 297.01,381.81 297.96,379.59 L 299.67 375.55 L 300.38 378.37 C300.83,380.16 300.61,381.77 299.79,382.79 C298.70,384.13 298.73,384.25 300.00,383.50 C301.33,382.72 301.33,382.84 300.03,384.56 ZM 402.98 406.25 C402.96,409.91 401.74,410.94 399.73,409.00 C397.60,406.95 398.41,404.00 401.11,404.00 C402.41,404.00 403.00,404.70 402.98,406.25 ZM 408.40 401.41 C408.06,402.28 406.93,403.00 405.89,403.00 C403.32,403.00 403.41,399.39 406.00,398.71 C408.33,398.10 409.26,399.16 408.40,401.41 ZM 302.09 393.69 C302.70,394.30 303.02,395.62 302.81,396.64 C302.45,398.43 302.42,398.43 301.72,396.67 C300.61,393.84 300.79,392.39 302.09,393.69 ZM 311.97 367.04 C309.54,368.58 308.45,368.12 310.26,366.31 C311.19,365.38 312.29,364.95 312.70,365.36 C313.11,365.77 312.78,366.53 311.97,367.04 Z" fill="rgb(58,116,161)"/>
<path d="M 294.20 406.81 C294.44,403.68 294.26,401.34 293.81,401.62 C293.37,401.89 292.95,401.30 292.88,400.31 C292.79,398.85 292.11,400.83 291.45,403.69 C292.52,397.52 293.98,391.53 295.82,385.71 C295.70,386.17 295.59,386.59 295.51,386.95 C294.79,390.22 294.81,390.25 296.67,388.39 C297.71,387.35 299.22,385.63 300.03,384.56 C301.33,382.84 301.33,382.72 300.00,383.50 C298.73,384.25 298.70,384.13 299.79,382.79 C300.61,381.77 300.83,380.16 300.38,378.37 L 299.67 375.55 L 297.96 379.59 C297.88,379.77 297.80,379.95 297.73,380.14 C303.23,365.13 311.40,351.29 322.31,338.50 C347.36,309.10 380.95,292.15 420.48,288.96 C428.54,288.32 463.57,288.03 512.47,288.21 L 591.45 288.50 L 587.67 292.68 C581.60,299.40 574.58,312.01 571.01,322.64 C568.04,331.46 567.64,333.98 567.24,346.50 C566.86,358.30 567.11,361.87 568.86,369.21 C571.16,378.81 575.31,388.70 579.90,395.51 C581.55,397.95 582.49,400.20 582.00,400.50 C581.50,400.81 545.19,400.95 501.30,400.83 L 421.50 400.60 L 416.00 403.23 C408.36,406.89 403.51,411.82 401.20,418.41 C401.31,418.03 401.43,417.65 401.55,417.25 C402.19,415.15 402.01,415.05 398.87,415.66 C397.01,416.02 395.35,416.70 395.16,417.16 C394.98,417.63 394.37,417.73 393.81,417.38 C393.25,417.04 388.68,416.87 383.65,417.00 C378.62,417.14 369.20,417.30 362.71,417.37 C353.84,417.47 350.72,417.84 350.07,418.89 C349.39,419.99 347.59,420.12 341.36,419.53 C337.03,419.11 330.95,418.65 327.83,418.50 C324.71,418.34 321.62,417.88 320.95,417.47 C320.28,417.05 316.42,416.80 312.38,416.91 C305.13,417.10 305.01,417.06 303.12,413.95 L 301.20 410.80 L 298.60 415.24 C297.17,417.68 296.00,420.14 296.00,420.72 C296.00,421.29 295.35,422.29 294.56,422.95 C293.39,423.92 292.79,423.53 291.31,420.82 L 289.67 417.82 C289.79,416.38 289.92,414.95 290.07,413.52 C290.04,415.96 290.29,415.81 291.89,414.29 C293.18,413.07 293.92,410.68 294.20,406.81 ZM 609.96 392.69 C608.61,391.46 606.38,389.16 605.00,387.57 C603.03,385.30 602.88,384.82 604.30,385.33 C605.58,385.79 605.88,385.62 605.33,384.74 C604.90,384.06 604.47,382.95 604.37,382.27 C604.06,380.22 601.09,377.82 599.84,378.60 C599.05,379.09 598.86,378.79 599.28,377.71 C599.71,376.58 599.47,376.27 598.45,376.66 C597.81,376.90 597.44,377.07 597.53,377.64 C594.85,372.43 592.78,367.00 593.67,367.00 C593.98,367.00 593.80,366.44 593.26,365.75 C592.03,364.19 591.95,363.62 591.33,352.00 C591.02,346.33 591.30,340.28 592.02,337.00 C593.45,330.46 598.91,317.00 600.14,317.00 C600.61,317.00 601.00,316.33 601.00,315.50 C601.00,313.09 614.31,299.80 620.41,296.12 C623.50,294.27 629.05,291.60 632.76,290.19 C638.67,287.95 641.09,287.63 652.50,287.57 C668.16,287.49 676.14,289.64 687.38,296.99 C700.99,305.91 711.42,320.57 715.11,336.00 C717.00,343.91 716.74,357.25 714.55,365.00 C708.41,386.70 690.19,405.04 669.46,410.39 C642.50,417.34 614.17,405.62 599.67,381.50 C600.13,382.21 600.68,383.04 601.31,384.00 C604.85,389.36 611.16,396.18 611.89,395.44 C612.18,395.15 611.31,393.92 609.96,392.69 ZM 647.02 379.41 C657.06,382.12 667.12,379.23 675.19,371.30 C690.66,356.10 686.23,330.66 666.50,321.37 C662.54,319.51 659.84,319.02 653.50,319.03 C643.84,319.05 639.17,320.89 632.13,327.48 C625.08,334.07 622.71,340.11 623.15,350.41 C623.80,365.53 631.84,375.30 647.02,379.41 ZM 402.98 406.25 C403.00,404.70 402.41,404.00 401.11,404.00 C398.41,404.00 397.60,406.95 399.73,409.00 C401.74,410.94 402.96,409.91 402.98,406.25 ZM 408.40 401.41 C409.26,399.16 408.33,398.10 406.00,398.71 C403.41,399.39 403.32,403.00 405.89,403.00 C406.93,403.00 408.06,402.28 408.40,401.41 ZM 302.09 393.69 C300.79,392.39 300.61,393.84 301.72,396.67 C302.42,398.43 302.45,398.43 302.81,396.64 C303.02,395.62 302.70,394.30 302.09,393.69 ZM 311.97 367.04 C312.78,366.53 313.11,365.77 312.70,365.36 C312.29,364.95 311.19,365.38 310.26,366.31 C308.45,368.12 309.54,368.58 311.97,367.04 ZM 400.20 435.63 C399.12,431.75 399.07,427.95 400.02,423.20 C399.75,424.88 399.62,426.64 399.61,428.50 C399.59,431.47 399.75,433.65 400.20,435.63 ZM 289.64 443.45 C290.99,458.98 295.26,473.57 302.97,489.50 C295.13,473.30 290.97,459.31 289.64,443.45 ZM 289.36 422.67 L 289.21 428.50 C289.16,430.38 289.15,432.24 289.17,434.08 C289.12,430.99 289.16,427.80 289.28,424.50 C289.31,423.89 289.33,423.28 289.36,422.67 ZM 409.77 449.77 C406.81,447.43 404.23,444.56 402.63,441.67 C404.36,444.65 406.90,447.48 409.77,449.77 Z" fill="rgb(57,133,153)"/>
<path d="M 629.91 602.23 C628.65,600.21 628.65,600.21 626.74,602.36 C624.94,604.38 624.87,604.39 625.53,602.50 C626.79,598.90 625.92,589.60 623.89,585.01 C622.79,582.53 620.46,578.93 618.70,577.02 C616.88,575.05 616.54,574.40 617.90,575.52 L 620.29 577.50 L 619.11 575.25 C618.46,574.01 617.27,573.00 616.46,573.00 C615.66,573.00 615.00,572.61 615.00,572.12 C615.00,571.64 611.96,569.70 608.25,567.82 C601.58,564.43 601.37,564.39 590.75,564.78 C584.62,565.01 580.24,565.57 580.56,566.10 C580.89,566.63 579.53,566.73 577.31,566.35 C575.22,565.99 572.52,565.65 571.31,565.60 C570.11,565.54 567.78,563.99 566.13,562.15 C564.20,559.98 562.67,559.06 561.82,559.56 C561.09,559.98 560.82,559.97 561.21,559.53 C561.60,559.10 558.36,554.90 554.01,550.20 C549.65,545.51 546.33,541.28 546.62,540.81 C546.91,540.34 546.78,540.01 546.32,540.09 C544.05,540.49 542.94,539.83 543.21,538.25 C543.38,537.20 542.95,536.61 542.14,536.79 C541.40,536.94 540.16,536.55 539.39,535.91 C538.63,535.28 538.00,535.15 537.99,535.63 C537.99,536.11 537.33,535.23 536.52,533.68 C535.71,532.13 535.15,530.33 535.27,529.68 C535.40,529.03 534.95,528.61 534.28,528.74 C533.62,528.87 532.01,527.97 530.71,526.74 C529.41,525.51 527.48,523.76 526.42,522.85 C525.37,521.95 516.55,513.17 506.84,503.35 C497.13,493.53 488.03,484.50 486.61,483.28 C484.15,481.15 483.93,478.00 486.23,478.00 C486.79,478.00 486.63,478.76 485.87,479.69 C484.67,481.16 484.72,481.29 486.20,480.74 C487.38,480.30 487.74,480.52 487.38,481.46 C487.07,482.25 487.73,483.10 488.93,483.48 C490.07,483.84 491.66,485.34 492.46,486.82 C493.36,488.46 493.94,488.89 493.96,487.92 C493.98,486.96 494.84,486.37 496.15,486.42 C497.33,486.46 498.51,485.87 498.78,485.11 C499.07,484.26 498.82,483.99 498.12,484.42 C496.37,485.51 493.76,482.32 494.50,480.00 C495.19,477.84 496.51,477.40 497.50,479.00 C498.71,480.96 499.79,479.93 501.44,475.25 C501.58,474.84 501.72,474.45 501.85,474.08 C503.47,469.47 504.04,467.86 503.48,467.15 C503.13,466.72 502.35,466.62 501.12,466.37 C497.62,465.67 497.06,464.43 499.85,463.55 C502.78,462.62 515.99,463.01 521.67,464.20 L 526.83 465.28 L 527.44 470.89 C527.78,473.98 528.38,480.29 528.78,484.92 C529.23,490.22 529.96,493.50 530.75,493.75 C531.44,493.98 532.00,493.41 532.00,492.49 C532.00,491.56 532.85,489.61 533.88,488.15 C534.92,486.69 535.93,484.65 536.13,483.61 C536.33,482.57 537.29,481.33 538.25,480.86 L 541.75 479.14 C542.71,478.67 543.67,477.43 543.87,476.39 C544.07,475.35 545.08,473.31 546.12,471.85 C548.62,468.31 548.49,467.16 545.50,466.41 C544.12,466.07 543.00,465.43 543.00,465.01 C543.00,462.70 560.04,462.14 561.90,464.38 C563.28,466.05 561.45,467.00 556.87,467.00 L 553.90 467.00 L 554.20 472.75 C554.47,477.84 554.76,478.54 556.75,478.82 C558.14,479.02 559.23,480.05 559.60,481.53 C560.70,485.92 565.25,485.59 575.15,480.39 C578.81,478.48 589.38,478.55 591.00,480.50 C591.68,481.33 593.48,482.00 594.98,482.00 L 597.72 482.00 L 598.43 493.24 C598.82,499.41 599.23,504.56 599.34,504.67 C599.45,504.78 601.44,504.62 603.77,504.30 C607.63,503.79 608.00,503.48 608.00,500.87 C608.00,498.37 608.37,498.00 610.92,498.00 C612.52,498.00 615.22,498.79 616.92,499.75 C619.85,501.42 620.15,501.42 623.08,499.75 C627.25,497.38 632.00,497.41 632.00,499.80 C632.00,501.98 633.86,504.00 635.87,504.00 C636.68,504.00 638.13,504.71 639.09,505.58 C640.37,506.74 643.81,507.29 652.16,507.68 L 663.50 508.21 L 667.75 504.07 C670.09,501.79 672.00,499.10 672.00,498.09 C672.00,495.48 674.20,493.98 676.96,494.70 C678.81,495.18 679.13,495.01 678.46,493.91 C677.74,492.70 677.87,492.70 679.36,493.91 C680.58,494.91 680.75,495.53 679.94,496.04 C679.30,496.43 679.93,496.75 681.37,496.75 C682.80,496.75 684.48,496.13 685.10,495.38 C685.84,494.49 685.88,494.00 685.21,494.00 C684.63,494.00 683.97,494.56 683.72,495.25 C683.47,495.94 682.89,496.14 682.42,495.70 C681.94,495.25 682.21,494.49 683.00,494.00 C683.79,493.51 684.09,492.76 683.67,492.33 C683.24,491.91 682.55,492.12 682.12,492.80 C681.54,493.74 680.93,493.58 679.64,492.16 C678.01,490.35 678.04,490.28 680.44,490.54 C681.82,490.69 684.14,491.75 685.59,492.90 C687.05,494.04 688.54,494.79 688.90,494.56 C689.27,494.33 689.57,494.98 689.57,496.00 C689.57,497.02 689.11,497.57 688.54,497.22 C687.97,496.87 688.22,497.68 689.11,499.02 C690.66,501.37 696.47,503.44 698.31,502.31 C698.78,502.02 697.89,500.37 696.33,498.64 L 693.50 495.50 L 696.73 498.42 C699.03,500.49 699.67,501.69 698.96,502.54 C697.87,503.86 698.74,507.28 699.98,506.52 C700.40,506.25 701.77,506.93 703.02,508.02 C704.28,509.11 704.96,510.00 704.54,510.00 C704.12,510.00 704.52,511.14 705.43,512.53 C706.34,513.92 706.77,515.61 706.38,516.28 C706.00,516.95 706.05,517.16 706.51,516.75 C706.96,516.33 708.24,516.78 709.34,517.75 C710.44,518.71 711.01,518.94 710.61,518.25 C710.21,517.56 710.12,517.00 710.42,517.00 C711.52,517.00 714.05,523.11 713.39,524.18 C712.98,524.84 713.14,525.03 713.78,524.64 C714.37,524.27 715.15,524.43 715.50,525.00 C715.85,525.57 716.67,525.71 717.32,525.32 C718.13,524.84 718.10,525.10 717.24,526.17 C716.22,527.43 716.32,528.15 717.80,530.11 C718.80,531.42 720.22,534.41 720.97,536.75 C721.71,539.10 722.52,540.81 722.77,540.57 C723.52,539.82 728.00,545.19 728.04,546.90 C728.07,547.78 728.78,550.30 729.62,552.50 C732.65,560.39 734.95,571.72 736.12,584.57 C737.42,598.84 736.92,604.01 734.45,601.96 C733.65,601.29 732.66,599.49 732.25,597.95 L 731.50 595.15 L 724.50 597.62 C719.32,599.45 715.68,600.05 710.50,599.94 C706.65,599.85 702.83,600.03 702.00,600.34 C701.17,600.65 698.03,601.06 695.00,601.26 C691.97,601.46 688.83,601.82 688.00,602.06 C686.40,602.53 686.26,600.97 687.40,595.50 C688.39,590.75 686.25,588.94 679.36,588.70 L 673.50 588.50 L 673.19 591.68 C673.02,593.42 672.27,595.36 671.51,595.99 C669.70,597.49 662.42,596.90 662.74,595.28 C662.87,594.61 662.01,593.54 660.82,592.90 C659.10,591.98 658.44,592.04 657.58,593.20 C656.76,594.29 654.88,594.54 649.89,594.22 C643.46,593.80 643.25,593.70 641.96,590.39 C639.99,585.38 636.00,586.49 636.00,592.05 C636.00,595.38 634.14,601.07 632.46,602.88 C631.38,604.04 630.98,603.93 629.91,602.23 ZM 482.35 473.76 C482.63,474.21 481.95,474.57 480.86,474.57 C478.60,474.57 470.99,468.47 471.02,466.67 C471.02,465.98 471.46,466.11 472.09,467.00 C472.92,468.17 473.07,468.19 472.77,467.09 C472.56,466.31 471.60,465.56 470.63,465.42 C468.78,465.14 463.44,460.00 465.02,460.00 C465.52,460.00 465.64,459.21 465.28,458.25 C464.69,456.66 464.80,456.64 466.55,458.00 C467.61,458.83 469.30,460.40 470.32,461.50 C471.82,463.13 472.07,463.18 471.63,461.80 C471.26,460.61 471.54,460.27 472.55,460.66 C473.34,460.96 473.74,461.61 473.44,462.10 C473.13,462.60 473.47,463.01 474.19,463.02 C475.26,463.03 475.26,463.18 474.20,463.85 C473.18,464.50 473.28,464.98 474.64,466.09 C475.88,467.09 476.16,467.12 475.61,466.21 C473.99,463.52 476.97,461.93 482.39,462.61 C485.20,462.96 487.89,463.61 488.38,464.05 C489.49,465.07 481.33,467.32 478.85,466.67 C477.01,466.19 476.29,467.95 477.74,469.40 C478.14,469.81 478.48,470.90 478.49,471.82 C478.49,472.83 479.17,473.39 480.17,473.22 C481.10,473.07 482.08,473.31 482.35,473.76 ZM 590.53 507.05 C592.06,509.53 593.49,507.07 593.25,502.39 C592.88,495.26 592.62,494.89 589.05,496.13 C586.27,497.10 586.00,497.59 586.00,501.60 C586.00,505.29 586.31,506.00 587.94,506.00 C589.01,506.00 590.17,506.47 590.53,507.05 ZM 523.52 518.02 C525.45,520.16 526.53,520.66 525.46,518.93 C525.06,518.30 525.53,517.99 526.61,518.18 C529.40,518.67 529.35,515.65 526.54,514.36 C524.58,513.45 523.82,513.51 522.89,514.63 C521.98,515.73 522.12,516.47 523.52,518.02 ZM 627.69 596.97 C628.05,598.34 628.54,598.89 628.76,598.22 C628.99,597.54 629.58,597.24 630.09,597.55 C630.59,597.86 631.00,596.50 631.00,594.52 C631.00,591.24 630.83,591.02 629.00,592.00 C626.79,593.18 626.73,593.40 627.69,596.97 ZM 675.98 486.75 C677.05,487.90 677.48,489.22 677.03,489.96 C676.44,490.91 676.07,490.93 675.52,490.04 C675.12,489.39 674.26,489.07 673.60,489.32 C672.15,489.88 671.72,486.29 673.14,485.41 C673.70,485.07 674.97,485.67 675.98,486.75 ZM 710.24 515.34 C711.09,515.68 711.00,515.87 709.97,515.92 C708.12,516.02 704.55,510.40 705.91,509.55 C706.43,509.23 707.01,509.99 707.20,511.24 C707.39,512.48 708.13,513.38 708.85,513.23 C709.56,513.07 709.89,513.37 709.57,513.89 C709.25,514.41 709.55,515.06 710.24,515.34 ZM 466.98 461.48 C468.42,463.21 469.00,463.39 469.00,462.11 C469.00,461.62 468.26,460.93 467.36,460.58 C465.99,460.06 465.92,460.20 466.98,461.48 ZM 502.21 497.40 C502.92,498.17 503.66,498.65 503.85,498.47 C504.44,497.90 502.94,496.00 501.90,496.00 C501.36,496.00 501.50,496.63 502.21,497.40 ZM 510.56 505.29 C510.94,506.28 511.50,506.83 511.81,506.53 C512.11,506.22 511.81,505.41 511.12,504.73 C510.14,503.75 510.02,503.87 510.56,505.29 Z" fill="rgb(79,127,187)"/>
<path d="M 696.38 498.70 C697.91,500.40 698.77,502.02 698.31,502.31 C696.47,503.44 690.66,501.37 689.11,499.02 C688.22,497.68 687.97,496.87 688.54,497.22 C689.11,497.57 689.57,497.02 689.57,496.00 C689.57,494.98 689.27,494.33 688.90,494.56 C688.54,494.79 687.05,494.04 685.59,492.90 C684.14,491.75 681.82,490.69 680.44,490.54 C678.04,490.28 678.01,490.35 679.64,492.16 C680.93,493.58 681.54,493.74 682.12,492.80 C682.55,492.12 683.24,491.91 683.67,492.33 C684.09,492.76 683.79,493.51 683.00,494.00 C682.21,494.49 681.94,495.25 682.42,495.70 C682.89,496.14 683.47,495.94 683.72,495.25 C683.97,494.56 684.63,494.00 685.21,494.00 C685.88,494.00 685.84,494.49 685.10,495.38 C684.48,496.13 682.80,496.75 681.37,496.75 C679.93,496.75 679.30,496.43 679.94,496.04 C680.75,495.53 680.58,494.91 679.36,493.91 C677.87,492.70 677.74,492.70 678.46,493.91 C679.13,495.01 678.81,495.18 676.96,494.70 C674.20,493.98 672.00,495.48 672.00,498.09 C672.00,499.10 670.09,501.79 667.75,504.07 L 663.50 508.21 L 652.16 507.68 C643.81,507.29 640.37,506.74 639.09,505.58 C638.13,504.71 636.68,504.00 635.87,504.00 C633.86,504.00 632.00,501.98 632.00,499.80 C632.00,497.41 627.25,497.38 623.08,499.75 C620.15,501.42 619.85,501.42 616.92,499.75 C615.22,498.79 612.52,498.00 610.92,498.00 C608.37,498.00 608.00,498.37 608.00,500.87 C608.00,503.48 607.63,503.79 603.77,504.30 C601.44,504.62 599.45,504.78 599.34,504.67 C599.23,504.56 598.82,499.41 598.43,493.24 L 597.72 482.00 L 594.98 482.00 C593.48,482.00 591.68,481.33 591.00,480.50 C589.38,478.55 578.81,478.48 575.15,480.39 C565.25,485.59 560.70,485.92 559.60,481.53 C559.23,480.05 558.14,479.02 556.75,478.82 C554.76,478.54 554.47,477.84 554.20,472.75 L 553.90 467.00 L 556.87 467.00 C561.45,467.00 563.28,466.05 561.90,464.38 C560.04,462.14 543.00,462.70 543.00,465.01 C543.00,465.43 544.12,466.07 545.50,466.41 C548.49,467.16 548.62,468.31 546.12,471.85 C545.08,473.31 544.07,475.35 543.87,476.39 C543.67,477.43 542.71,478.67 541.75,479.14 L 538.25 480.86 C537.29,481.33 536.33,482.57 536.13,483.61 C535.93,484.65 534.92,486.69 533.88,488.15 C532.85,489.61 532.00,491.56 532.00,492.49 C532.00,493.41 531.44,493.98 530.75,493.75 C529.96,493.50 529.23,490.22 528.78,484.92 C528.38,480.29 527.78,473.98 527.44,470.89 L 526.83 465.28 L 521.67 464.20 C515.99,463.01 502.78,462.62 499.85,463.55 C497.06,464.43 497.62,465.67 501.12,466.37 C502.35,466.62 503.13,466.72 503.48,467.15 C504.04,467.86 503.48,469.47 501.85,474.08 L 501.85 474.08 C501.72,474.45 501.58,474.84 501.44,475.25 C499.79,479.93 498.71,480.96 497.50,479.00 C496.51,477.40 495.19,477.84 494.50,480.00 C493.76,482.32 496.37,485.51 498.12,484.42 C498.82,483.99 499.07,484.26 498.78,485.11 C498.51,485.87 497.33,486.46 496.15,486.42 C494.84,486.37 493.98,486.96 493.96,487.92 C493.94,488.89 493.36,488.46 492.46,486.82 C491.66,485.34 490.07,483.84 488.93,483.48 C487.73,483.10 487.07,482.25 487.38,481.46 C487.74,480.52 487.38,480.30 486.20,480.74 C484.72,481.29 484.67,481.16 485.87,479.69 C486.63,478.76 486.79,478.00 486.23,478.00 C483.93,478.00 484.15,481.15 486.61,483.28 C488.03,484.50 497.13,493.53 506.84,503.35 C516.55,513.17 525.37,521.95 526.42,522.85 C527.48,523.76 529.41,525.51 530.71,526.74 C532.01,527.97 533.62,528.87 534.28,528.74 C534.95,528.61 535.40,529.03 535.27,529.68 C535.15,530.33 535.71,532.13 536.52,533.68 C537.33,535.23 537.99,536.11 537.99,535.63 C538.00,535.15 538.63,535.28 539.39,535.91 C540.16,536.55 541.40,536.94 542.14,536.79 C542.95,536.61 543.38,537.20 543.21,538.25 C542.94,539.83 544.05,540.49 546.32,540.09 C546.78,540.01 546.91,540.34 546.62,540.81 C546.33,541.28 549.65,545.51 554.01,550.20 C558.36,554.90 561.60,559.10 561.21,559.53 C561.19,559.56 561.16,559.59 561.14,559.61 L 514.02 512.50 L 457.50 456.01 L 531.03 456.00 C576.19,456.00 607.77,456.40 612.89,457.05 C623.40,458.36 636.06,461.35 644.20,464.44 C655.14,468.59 672.23,477.30 672.83,479.04 C673.02,479.57 673.63,480.00 674.19,480.00 C675.11,480.00 681.04,484.24 685.00,487.71 C686.66,489.17 691.57,493.93 696.38,498.70 ZM 524.00 568.15 C524.00,567.26 513.25,565.95 502.00,565.46 C493.04,565.07 487.08,563.81 483.26,561.48 C480.00,559.49 479.07,558.00 481.09,558.00 C481.82,558.00 481.98,555.81 481.57,551.25 C481.49,550.36 481.41,549.50 481.34,548.69 C480.07,534.43 479.85,531.99 480.89,530.35 C481.17,529.92 481.53,529.54 481.99,529.02 C483.17,527.65 483.90,525.74 483.64,524.72 C483.25,523.23 483.42,523.11 484.58,524.07 C485.69,524.99 486.00,524.95 486.01,523.87 C486.02,523.12 487.17,523.96 488.58,525.75 C489.99,527.54 491.71,529.00 492.40,529.00 C494.19,529.00 498.17,533.49 497.26,534.48 C496.84,534.94 497.03,535.02 497.68,534.64 C499.05,533.86 513.67,548.61 513.19,550.27 C513.02,550.87 513.57,550.77 514.43,550.06 C515.08,549.52 515.41,548.95 515.45,548.44 C516.69,549.71 517.88,550.92 519.02,552.09 C518.83,552.03 518.60,552.00 518.34,552.00 C517.12,552.00 518.70,554.17 523.38,558.88 C527.54,563.07 529.77,566.02 529.10,566.44 C527.64,567.34 527.67,568.22 528.77,568.63 C520.93,568.81 505.75,568.88 489.03,568.85 C508.37,568.81 524.00,568.59 524.00,568.15 ZM 561.34 559.80 C561.46,559.75 561.62,559.67 561.82,559.56 C562.67,559.06 564.20,559.98 566.13,562.15 C567.78,563.99 570.11,565.54 571.31,565.60 C572.52,565.65 575.22,565.99 577.31,566.35 C579.53,566.73 580.89,566.63 580.56,566.10 C580.24,565.57 584.62,565.01 590.75,564.78 C601.37,564.39 601.58,564.43 608.25,567.82 C611.96,569.70 615.00,571.64 615.00,572.12 C615.00,572.61 615.66,573.00 616.46,573.00 C617.27,573.00 618.46,574.01 619.11,575.25 L 620.29 577.50 L 617.90 575.52 C616.54,574.40 616.88,575.05 618.70,577.02 C619.76,578.18 621.03,579.94 622.11,581.71 C619.16,577.04 614.57,572.81 610.17,570.89 C606.46,569.27 603.30,569.00 588.19,569.00 L 570.54 569.00 ZM 482.35 473.76 C482.08,473.31 481.10,473.07 480.17,473.22 C479.17,473.39 478.49,472.83 478.49,471.82 C478.48,470.90 478.14,469.81 477.74,469.40 C476.29,467.95 477.01,466.19 478.85,466.67 C481.33,467.32 489.49,465.07 488.38,464.05 C487.89,463.61 485.20,462.96 482.39,462.61 C476.97,461.93 473.99,463.52 475.61,466.21 C476.16,467.12 475.88,467.09 474.64,466.09 C473.28,464.98 473.18,464.50 474.20,463.85 C475.26,463.18 475.26,463.03 474.19,463.02 C473.47,463.01 473.13,462.60 473.44,462.10 C473.74,461.61 473.34,460.96 472.55,460.66 C471.54,460.27 471.26,460.61 471.63,461.80 C472.07,463.18 471.82,463.13 470.32,461.50 C469.30,460.40 467.61,458.83 466.55,458.00 C464.80,456.64 464.69,456.66 465.28,458.25 C465.64,459.21 465.52,460.00 465.02,460.00 C463.44,460.00 468.78,465.14 470.63,465.42 C471.60,465.56 472.56,466.31 472.77,467.09 C473.07,468.19 472.92,468.17 472.09,467.00 C471.46,466.11 471.02,465.98 471.02,466.67 C470.99,468.47 478.60,474.57 480.86,474.57 C481.95,474.57 482.63,474.21 482.35,473.76 ZM 717.72 525.12 C717.62,525.15 717.49,525.22 717.32,525.32 C716.67,525.71 715.85,525.57 715.50,525.00 C715.15,524.43 714.37,524.27 713.78,524.64 C713.14,525.03 712.98,524.84 713.39,524.18 C714.05,523.11 711.52,517.00 710.42,517.00 C710.12,517.00 710.21,517.56 710.61,518.25 C711.01,518.94 710.44,518.71 709.34,517.75 C708.24,516.78 706.96,516.33 706.51,516.75 C706.05,517.16 706.00,516.95 706.38,516.28 C706.77,515.61 706.34,513.92 705.43,512.53 C704.52,511.14 704.12,510.00 704.54,510.00 C704.96,510.00 704.28,509.11 703.02,508.02 C701.77,506.93 700.40,506.25 699.98,506.52 C698.74,507.28 697.87,503.86 698.96,502.54 C699.21,502.24 699.30,501.90 699.20,501.49 C703.48,505.75 707.12,509.46 707.54,510.04 C712.47,516.98 715.38,521.23 717.72,525.12 ZM 590.53 507.05 C590.17,506.47 589.01,506.00 587.94,506.00 C586.31,506.00 586.00,505.29 586.00,501.60 C586.00,497.59 586.27,497.10 589.05,496.13 C592.62,494.89 592.88,495.26 593.25,502.39 C593.49,507.07 592.06,509.53 590.53,507.05 ZM 727.35 545.16 C726.05,542.95 723.33,540.00 722.77,540.57 C722.52,540.81 721.71,539.10 720.97,536.75 C720.22,534.41 718.80,531.42 717.80,530.11 C716.32,528.15 716.22,527.43 717.24,526.17 C717.55,525.79 717.75,525.51 717.84,525.33 C719.42,527.97 720.75,530.46 722.29,533.54 C724.28,537.51 726.30,542.18 727.35,545.16 ZM 523.52 518.02 C522.12,516.47 521.98,515.73 522.89,514.63 C523.82,513.51 524.58,513.45 526.54,514.36 C529.35,515.65 529.40,518.67 526.61,518.18 C525.53,517.99 525.06,518.30 525.46,518.93 C526.53,520.66 525.45,520.16 523.52,518.02 ZM 675.98 486.75 C674.97,485.67 673.70,485.07 673.14,485.41 C671.72,486.29 672.15,489.88 673.60,489.32 C674.26,489.07 675.12,489.39 675.52,490.04 C676.07,490.93 676.44,490.91 677.03,489.96 C677.48,489.22 677.05,487.90 675.98,486.75 ZM 503.30 536.08 C503.09,536.03 502.82,536.00 502.50,536.00 C501.49,536.00 500.95,535.71 501.30,535.37 C501.65,535.02 500.31,533.44 498.33,531.87 C496.35,530.29 495.09,529.00 495.53,529.00 C495.95,529.00 481.86,514.52 463.57,496.12 C468.24,500.80 473.44,506.01 479.23,511.82 C487.86,520.47 496.03,528.71 503.30,536.08 ZM 710.24 515.34 C709.55,515.06 709.25,514.41 709.57,513.89 C709.89,513.37 709.56,513.07 708.85,513.23 C708.13,513.38 707.39,512.48 707.20,511.24 C707.01,509.99 706.43,509.23 705.91,509.55 C704.55,510.40 708.12,516.02 709.97,515.92 C711.00,515.87 711.09,515.68 710.24,515.34 ZM 514.07 547.03 C513.93,547.01 513.77,547.00 513.60,547.00 C512.89,547.00 511.50,546.10 510.50,545.00 C509.50,543.90 509.05,543.00 509.48,543.00 C509.92,543.00 508.65,541.71 506.67,540.13 C504.69,538.56 503.35,536.98 503.70,536.63 C503.73,536.61 503.75,536.58 503.77,536.55 C507.46,540.29 510.91,543.80 514.07,547.03 ZM 531.49 565.05 C528.75,563.47 525.92,560.75 526.51,560.16 C526.57,560.10 526.59,560.01 526.58,559.90 C528.58,561.97 530.23,563.71 531.49,565.05 ZM 466.98 461.48 C465.92,460.20 465.99,460.06 467.36,460.58 C468.26,460.93 469.00,461.62 469.00,462.11 C469.00,463.39 468.42,463.21 466.98,461.48 ZM 736.19 585.02 C736.99,594.04 737.05,599.36 736.32,601.41 C737.05,599.32 736.97,593.89 736.12,584.57 C735.07,573.08 733.13,562.80 730.56,555.12 C732.98,561.08 735.03,571.95 736.19,585.02 ZM 502.21 497.40 C501.50,496.63 501.36,496.00 501.90,496.00 C502.94,496.00 504.44,497.90 503.85,498.47 C503.66,498.65 502.92,498.17 502.21,497.40 ZM 510.56 505.29 C510.02,503.87 510.14,503.75 511.12,504.73 C511.81,505.41 512.11,506.22 511.81,506.53 C511.50,506.83 510.94,506.28 510.56,505.29 ZM 521.20 554.33 C520.82,554.12 520.49,554.00 520.25,554.00 C519.50,554.00 519.16,553.55 519.50,553.00 C519.57,552.89 519.60,552.79 519.60,552.69 C520.15,553.25 520.68,553.80 521.20,554.33 ZM 534.34 568.32 C534.29,568.38 533.82,568.43 533.00,568.48 C533.49,568.33 533.87,568.15 534.11,567.96 C534.29,568.18 534.37,568.30 534.34,568.32 ZM 417.50 567.91 C366.99,562.60 324.17,533.28 302.97,489.50 C324.17,533.28 367.05,562.64 417.50,567.90 C417.83,567.93 418.23,567.97 418.71,568.00 C418.21,567.97 417.80,567.94 417.50,567.91 ZM 729.25 551.49 C728.88,550.43 728.56,549.37 728.34,548.51 C728.61,549.47 728.93,550.50 729.25,551.49 ZM 409.77 449.77 C407.17,447.70 404.85,445.19 403.15,442.52 C404.88,445.23 407.26,447.79 409.91,449.88 C409.86,449.84 409.82,449.81 409.77,449.77 Z" fill="rgb(72,126,179)"/>
<path d="M 629.91 602.23 C630.98,603.93 631.38,604.04 632.46,602.88 C634.14,601.07 636.00,595.38 636.00,592.05 C636.00,586.49 639.99,585.38 641.96,590.39 C643.25,593.70 643.46,593.80 649.89,594.22 C654.88,594.54 656.76,594.29 657.58,593.20 C658.44,592.04 659.10,591.98 660.82,592.90 C662.01,593.54 662.87,594.61 662.74,595.28 C662.42,596.90 669.70,597.49 671.51,595.99 C672.27,595.36 673.02,593.42 673.19,591.68 L 673.50 588.50 L 679.36 588.70 C686.25,588.94 688.39,590.75 687.40,595.50 C686.26,600.97 686.40,602.53 688.00,602.06 C688.83,601.82 691.97,601.46 695.00,601.26 C698.03,601.06 701.17,600.65 702.00,600.34 C702.83,600.03 706.65,599.85 710.50,599.94 C715.68,600.05 719.32,599.45 724.50,597.62 L 731.50 595.15 L 732.25 597.95 C732.66,599.49 733.65,601.29 734.45,601.96 C735.31,602.67 735.93,602.52 736.32,601.41 C736.35,601.31 736.39,601.21 736.42,601.10 C736.23,603.37 735.95,605.91 735.58,608.96 C733.65,624.79 731.14,635.21 726.44,646.85 C722.16,657.46 713.17,673.38 708.84,678.00 C707.04,679.92 705.66,681.83 705.77,682.23 C705.89,682.63 704.87,683.70 703.49,684.60 C702.12,685.49 701.00,686.76 701.00,687.40 C701.00,688.93 691.79,698.00 690.25,698.00 C689.59,698.00 688.06,699.35 686.84,701.00 C685.62,702.65 684.08,704.00 683.42,704.00 C682.76,704.00 681.95,704.67 681.64,705.50 C681.32,706.33 680.52,707.00 679.86,707.00 C679.19,707.00 679.71,705.88 681.00,704.50 C682.29,703.12 683.01,702.00 682.60,702.00 C682.19,702.00 682.57,701.29 683.44,700.42 C684.31,699.55 684.81,698.50 684.56,698.09 C684.30,697.68 685.08,697.42 686.30,697.51 C687.86,697.62 688.86,696.83 689.73,694.77 C690.41,693.17 691.43,692.15 692.01,692.50 C692.58,692.86 692.93,692.63 692.77,691.99 C692.62,691.36 693.61,690.09 694.96,689.17 C696.94,687.82 697.25,687.79 696.54,689.00 C695.99,689.93 696.49,689.77 697.83,688.60 C700.04,686.65 700.76,685.41 699.06,686.46 C698.54,686.78 698.19,686.11 698.28,684.96 C698.42,683.13 698.58,683.07 699.59,684.45 C700.62,685.86 700.87,685.87 702.01,684.49 C702.71,683.64 703.00,682.66 702.64,682.31 C702.29,681.96 702.00,682.19 702.00,682.83 C702.00,684.43 700.33,684.31 699.71,682.67 C699.37,681.80 699.93,681.41 701.35,681.54 C703.60,681.74 706.00,680.37 706.00,678.89 C706.00,678.42 704.54,677.42 702.75,676.67 C700.96,675.92 698.88,674.57 698.13,673.65 C696.40,671.57 694.16,671.55 691.91,673.58 C690.54,674.82 689.72,674.92 688.08,674.04 C686.94,673.43 686.00,672.60 686.00,672.20 C686.00,671.81 682.74,671.84 678.75,672.29 C669.44,673.33 666.54,673.31 655.00,672.14 C646.58,671.29 645.18,671.38 642.64,672.96 C640.86,674.07 640.20,675.00 640.89,675.43 C641.50,675.81 642.00,676.72 642.00,677.45 C642.00,678.45 639.86,678.82 633.50,678.91 C628.13,678.98 625.00,678.64 625.00,677.97 C625.00,677.39 624.20,676.05 623.22,675.00 C621.78,673.46 619.77,673.03 612.97,672.79 L 604.50 672.50 L 604.19 669.30 C603.96,666.93 604.42,665.76 605.94,664.81 C607.68,663.72 608.00,662.50 608.00,656.88 C608.00,649.62 607.24,648.37 602.51,647.84 C599.92,647.54 599.42,646.98 598.71,643.50 C598.27,641.30 597.65,638.23 597.33,636.67 C597.01,635.11 596.13,633.60 595.37,633.31 C594.62,633.02 594.00,632.17 594.00,631.42 C594.00,630.62 593.38,630.30 592.50,630.64 C591.56,631.00 591.00,630.63 591.00,629.64 C591.00,626.57 586.88,625.79 568.12,625.29 C557.88,625.02 549.31,624.62 549.08,624.40 C548.85,624.18 560.26,624.00 574.43,624.00 C595.28,624.00 601.26,623.69 605.80,622.37 C608.88,621.47 611.92,620.24 612.55,619.62 C613.17,619.00 615.56,616.92 617.84,615.00 C620.12,613.08 621.99,610.94 621.99,610.25 C622.00,609.56 622.53,609.00 623.17,609.00 C623.81,609.00 624.07,608.74 623.75,608.42 C623.43,608.10 623.87,606.19 624.73,604.17 C625.50,602.35 625.95,600.33 626.11,598.21 C626.08,599.95 625.90,601.46 625.53,602.50 C624.87,604.39 624.94,604.38 626.74,602.36 C628.65,600.21 628.65,600.21 629.91,602.23 ZM 624.87 731.86 C622.87,732.34 620.76,733.03 620.19,733.38 C619.61,733.74 618.88,733.62 618.56,733.10 C618.25,732.59 619.91,731.87 622.25,731.51 C624.59,731.14 628.63,729.75 631.23,728.42 C633.83,727.09 637.35,726.00 639.05,726.00 C640.74,726.00 643.03,725.52 644.12,724.94 C645.22,724.35 646.65,724.07 647.31,724.32 C648.00,724.58 647.67,725.07 646.50,725.49 C645.40,725.89 643.07,726.85 641.32,727.62 C639.58,728.39 635.98,729.46 633.32,730.00 C630.67,730.54 626.87,731.37 624.87,731.86 ZM 627.69 596.97 C626.73,593.40 626.79,593.18 629.00,592.00 C630.83,591.02 631.00,591.24 631.00,594.52 C631.00,596.50 630.59,597.86 630.09,597.55 C629.58,597.24 628.99,597.54 628.76,598.22 C628.54,598.89 628.05,598.34 627.69,596.97 ZM 685.00 699.61 C685.00,700.42 686.91,699.96 687.49,699.01 C687.84,698.44 687.44,698.28 686.55,698.62 C685.70,698.95 685.00,699.39 685.00,699.61 ZM 609.57 570.64 C605.32,569.26 599.31,569.00 588.19,569.00 C602.49,569.00 606.08,569.24 609.57,570.64 ZM 625.21 589.34 C624.30,585.92 622.77,582.58 620.69,579.65 C621.20,580.32 621.67,581.01 622.11,581.71 C622.82,582.87 623.45,584.02 623.89,585.01 C624.41,586.19 624.86,587.70 625.21,589.34 ZM 736.19 585.02 C735.58,578.22 734.74,572.02 733.73,566.79 C734.69,571.73 735.51,577.53 736.10,583.81 C736.34,586.35 736.52,588.52 736.62,590.53 C736.51,588.88 736.37,587.04 736.19,585.02 Z" fill="rgb(99,125,200)"/>
<path d="M 614.08 734.46 C607.88,735.52 597.06,735.88 573.08,735.85 C555.16,735.82 541.29,735.58 542.26,735.32 C546.07,734.30 549.62,722.84 546.50,721.64 C545.61,721.30 545.15,720.56 545.50,720.01 C545.84,719.45 545.42,719.00 544.56,719.00 C543.43,719.00 543.00,717.98 543.00,715.30 C543.00,712.50 542.23,710.80 539.84,708.33 C538.09,706.53 536.61,704.24 536.54,703.24 C536.46,702.23 535.64,700.32 534.70,698.98 C533.77,697.65 533.00,695.15 533.00,693.44 C533.00,691.06 532.39,690.04 530.43,689.15 C529.01,688.50 527.47,688.21 527.01,688.50 C526.54,688.78 525.45,688.31 524.58,687.44 C522.40,685.25 522.33,673.19 524.50,672.36 C525.41,672.01 526.00,670.50 526.00,668.50 C526.00,666.50 525.41,664.99 524.50,664.64 C523.67,664.32 523.00,662.88 523.00,661.44 C523.00,660.00 522.10,657.67 521.00,656.27 C519.80,654.75 519.00,652.22 519.00,649.95 C519.00,644.89 518.16,643.00 515.93,643.00 C513.76,643.00 512.31,645.36 511.20,650.69 C510.77,652.79 510.01,654.41 509.52,654.30 C509.03,654.19 508.02,651.71 507.27,648.80 C506.08,644.15 506.11,643.08 507.54,639.91 C508.87,636.97 508.96,635.57 508.05,632.20 C507.09,628.63 506.51,628.01 503.72,627.59 C496.87,626.56 485.89,625.70 471.00,625.05 C461.73,624.64 484.57,624.29 527.85,624.18 C540.73,624.15 551.40,624.11 560.25,624.07 C553.40,624.14 548.94,624.26 549.08,624.40 C549.31,624.62 557.88,625.02 568.12,625.29 C586.88,625.79 591.00,626.57 591.00,629.64 C591.00,630.63 591.56,631.00 592.50,630.64 C593.38,630.30 594.00,630.62 594.00,631.42 C594.00,632.17 594.62,633.02 595.37,633.31 C596.13,633.60 597.01,635.11 597.33,636.67 C597.65,638.23 598.27,641.30 598.71,643.50 C599.42,646.98 599.92,647.54 602.51,647.84 C607.24,648.37 608.00,649.62 608.00,656.88 C608.00,662.50 607.68,663.72 605.94,664.81 C604.42,665.76 603.96,666.93 604.19,669.30 L 604.50 672.50 L 612.97 672.79 C619.77,673.03 621.78,673.46 623.22,675.00 C624.20,676.05 625.00,677.39 625.00,677.97 C625.00,678.64 628.13,678.98 633.50,678.91 C639.86,678.82 642.00,678.45 642.00,677.45 C642.00,676.72 641.50,675.81 640.89,675.43 C640.20,675.00 640.86,674.07 642.64,672.96 C645.18,671.38 646.58,671.29 655.00,672.14 C666.54,673.31 669.44,673.33 678.75,672.29 C682.74,671.84 686.00,671.81 686.00,672.20 C686.00,672.60 686.94,673.43 688.08,674.04 C689.72,674.92 690.54,674.82 691.91,673.58 C694.16,671.55 696.40,671.57 698.13,673.65 C698.88,674.57 700.96,675.92 702.75,676.67 C704.54,677.42 706.00,678.42 706.00,678.89 C706.00,680.37 703.60,681.74 701.35,681.54 C699.93,681.41 699.37,681.80 699.71,682.67 C700.33,684.31 702.00,684.43 702.00,682.83 C702.00,682.19 702.29,681.96 702.64,682.31 C703.00,682.66 702.71,683.64 702.01,684.49 C700.87,685.87 700.62,685.86 699.59,684.45 C698.58,683.07 698.42,683.13 698.28,684.96 C698.19,686.11 698.54,686.78 699.06,686.46 C700.76,685.41 700.04,686.65 697.83,688.60 C696.49,689.77 695.99,689.93 696.54,689.00 C697.25,687.79 696.94,687.82 694.96,689.17 C693.61,690.09 692.62,691.36 692.77,691.99 C692.93,692.63 692.58,692.86 692.01,692.50 C691.43,692.15 690.41,693.17 689.73,694.77 C688.86,696.83 687.86,697.62 686.30,697.51 C685.08,697.42 684.30,697.68 684.56,698.09 C684.81,698.50 684.31,699.55 683.44,700.42 C682.57,701.29 682.19,702.00 682.60,702.00 C683.01,702.00 682.29,703.12 681.00,704.50 C679.73,705.85 679.21,706.96 679.82,707.00 C676.86,709.10 673.29,711.49 668.63,714.56 C666.91,715.69 663.36,717.41 660.75,718.39 C658.14,719.37 656.00,720.58 656.00,721.08 C656.00,721.59 655.13,722.00 654.07,722.00 C653.01,722.00 651.54,722.60 650.80,723.34 C649.63,724.51 645.92,726.12 640.90,727.80 C641.05,727.74 641.19,727.68 641.32,727.62 C643.07,726.85 645.40,725.89 646.50,725.49 C647.67,725.07 648.00,724.58 647.31,724.32 C646.65,724.07 645.22,724.35 644.12,724.94 C643.03,725.52 640.74,726.00 639.05,726.00 C637.35,726.00 633.83,727.09 631.23,728.42 C628.63,729.75 624.59,731.14 622.25,731.51 C619.91,731.87 618.25,732.59 618.56,733.10 C618.69,733.30 618.87,733.45 619.09,733.52 C617.40,733.86 615.72,734.18 614.08,734.46 ZM 681.51 705.78 C681.56,705.69 681.60,705.60 681.64,705.50 C681.95,704.67 682.76,704.00 683.42,704.00 C684.08,704.00 685.62,702.65 686.84,701.00 C688.06,699.35 689.59,698.00 690.25,698.00 C690.54,698.00 691.13,697.66 691.88,697.10 C688.51,700.33 685.58,702.81 681.51,705.78 ZM 624.87 731.86 C626.87,731.37 630.67,730.54 633.32,730.00 C633.88,729.89 634.47,729.75 635.08,729.60 C630.54,730.91 625.48,732.19 620.47,733.24 C621.29,732.86 623.12,732.28 624.87,731.86 ZM 705.78 682.28 C705.78,682.26 705.78,682.25 705.77,682.23 C705.66,681.83 707.04,679.92 708.84,678.00 C713.17,673.38 722.16,657.46 726.44,646.85 C727.18,645.02 727.87,643.22 728.50,641.42 C725.83,649.10 722.42,656.42 718.00,664.19 C714.03,671.17 710.31,676.75 705.78,682.28 ZM 569.70 624.01 C596.36,623.80 602.26,623.40 605.80,622.37 C601.26,623.69 595.28,624.00 574.43,624.00 C572.81,624.00 571.23,624.00 569.70,624.01 ZM 685.00 699.61 C685.00,699.39 685.70,698.95 686.55,698.62 C687.44,698.28 687.84,698.44 687.49,699.01 C686.91,699.96 685.00,700.42 685.00,699.61 ZM 700.73 688.09 C700.90,687.80 701.00,687.56 701.00,687.40 C701.00,686.76 702.12,685.49 703.49,684.60 C703.82,684.38 704.13,684.16 704.40,683.94 C703.24,685.31 702.02,686.69 700.73,688.09 Z" fill="rgb(113,128,211)"/>
<path d="M 569.70 624.01 C566.25,624.02 563.05,624.04 560.25,624.07 L 560.25 624.07 C551.39,624.11 540.73,624.15 527.85,624.18 C484.57,624.29 461.73,624.64 471.00,625.05 C485.89,625.70 496.87,626.56 503.72,627.59 C506.51,628.01 507.09,628.63 508.05,632.20 C508.96,635.57 508.87,636.97 507.54,639.91 C506.11,643.08 506.08,644.15 507.27,648.80 C508.02,651.71 509.03,654.19 509.52,654.30 C510.01,654.41 510.77,652.79 511.20,650.69 C512.31,645.36 513.76,643.00 515.93,643.00 C518.16,643.00 519.00,644.89 519.00,649.95 C519.00,652.22 519.80,654.75 521.00,656.27 C522.10,657.67 523.00,660.00 523.00,661.44 C523.00,662.88 523.67,664.32 524.50,664.64 C525.41,664.99 526.00,666.50 526.00,668.50 C526.00,670.50 525.41,672.01 524.50,672.36 C522.33,673.19 522.40,685.25 524.58,687.44 C525.45,688.31 526.54,688.78 527.01,688.50 C527.47,688.21 529.01,688.50 530.43,689.15 C532.39,690.04 533.00,691.06 533.00,693.44 C533.00,695.15 533.77,697.65 534.70,698.98 C535.64,700.32 536.46,702.23 536.54,703.24 C536.61,704.24 538.09,706.53 539.84,708.33 C542.23,710.80 543.00,712.50 543.00,715.30 C543.00,717.98 543.43,719.00 544.56,719.00 C545.42,719.00 545.84,719.45 545.50,720.01 C545.15,720.56 545.61,721.30 546.50,721.64 C549.62,722.84 546.07,734.30 542.26,735.32 C541.32,735.57 554.54,735.81 571.87,735.84 C557.49,735.93 538.18,735.97 512.05,735.98 L 418.61 736.02 L 421.16 733.26 C440.94,711.86 448.93,680.62 441.70,652.92 C439.31,643.77 434.90,633.55 430.87,627.85 C429.84,626.39 429.00,624.92 429.00,624.60 C429.00,624.27 467.52,624.00 514.60,624.00 C590.74,624.00 600.81,623.82 605.80,622.37 C602.26,623.40 596.36,623.80 569.70,624.01 ZM 614.08 734.46 C615.72,734.18 617.40,733.86 619.09,733.52 L 619.10 733.52 C617.38,733.87 615.67,734.19 614.00,734.48 C613.46,734.57 612.85,734.66 612.16,734.74 C612.85,734.66 613.48,734.56 614.08,734.46 ZM 620.46 733.24 L 620.47 733.24 C621.76,732.97 623.05,732.68 624.34,732.38 C623.05,732.68 621.76,732.97 620.46,733.24 Z" fill="rgb(134,132,225)"/>
<path d="M 0.00 512.00 L 0.00 0.00 L 512.00 0.00 L 1024.00 0.00 L 1024.00 512.00 L 1024.00 1024.00 L 512.00 1024.00 L 0.00 1024.00 L 0.00 512.00 ZM 376.50 734.56 C413.31,722.19 430.42,680.61 413.33,645.08 C408.65,635.35 397.51,624.03 387.50,618.82 C376.59,613.15 370.20,611.65 357.00,611.67 C347.12,611.68 344.37,612.07 337.50,614.41 C326.36,618.22 319.90,622.17 312.16,629.91 C293.42,648.66 288.72,677.28 300.38,701.62 C314.02,730.07 347.17,744.42 376.50,734.56 ZM 614.00 734.48 C629.45,731.82 647.90,726.24 650.80,723.34 C651.54,722.60 653.01,722.00 654.07,722.00 C655.13,722.00 656.00,721.59 656.00,721.08 C656.00,720.58 658.14,719.37 660.75,718.39 C663.36,717.41 666.91,715.69 668.63,714.56 C683.07,705.07 687.01,702.01 694.75,694.30 C705.24,683.84 711.26,676.05 718.00,664.19 C727.99,646.61 732.85,631.36 735.58,608.96 C736.94,597.79 737.03,593.56 736.10,583.81 C734.92,571.31 732.86,560.71 730.51,555.00 C729.72,553.08 728.57,549.49 727.94,547.04 C727.32,544.59 724.78,538.51 722.29,533.54 C718.45,525.86 715.91,521.82 707.54,510.04 C706.59,508.71 688.51,490.80 685.00,487.71 C681.04,484.24 675.11,480.00 674.19,480.00 C673.63,480.00 673.02,479.57 672.83,479.04 C672.23,477.30 655.14,468.59 644.20,464.44 C636.06,461.35 623.40,458.36 612.89,457.05 C607.77,456.40 576.19,456.00 531.03,456.00 L 457.50 456.01 L 514.02 512.50 L 570.54 569.00 L 588.19 569.00 C608.33,569.00 611.69,569.86 618.20,576.64 C625.31,584.06 628.16,596.07 624.73,604.17 C623.87,606.19 623.43,608.10 623.75,608.42 C624.07,608.74 623.81,609.00 623.17,609.00 C622.53,609.00 622.00,609.56 621.99,610.25 C621.99,610.94 620.12,613.08 617.84,615.00 C615.56,616.92 613.17,619.00 612.55,619.62 C611.92,620.24 608.88,621.47 605.80,622.37 C600.81,623.82 590.74,624.00 514.60,624.00 C467.52,624.00 429.00,624.27 429.00,624.60 C429.00,624.92 429.84,626.39 430.87,627.85 C434.90,633.55 439.31,643.77 441.70,652.92 C448.93,680.62 440.94,711.86 421.16,733.26 L 418.61 736.02 L 512.05 735.98 C589.35,735.95 606.97,735.69 614.00,734.48 ZM 534.34 568.32 C534.68,567.98 509.88,542.56 479.23,511.82 C426.45,458.89 423.23,455.85 418.34,454.42 C411.87,452.53 404.93,446.55 401.87,440.24 C400.12,436.64 399.58,433.82 399.61,428.50 C399.67,416.58 404.88,408.55 416.00,403.23 L 421.50 400.60 L 501.30 400.83 C545.19,400.95 581.50,400.81 582.00,400.50 C582.49,400.20 581.55,397.95 579.90,395.51 C575.31,388.70 571.16,378.81 568.86,369.21 C567.11,361.87 566.86,358.30 567.24,346.50 C567.64,333.98 568.04,331.46 571.01,322.64 C574.58,312.01 581.60,299.40 587.67,292.68 L 591.45 288.50 L 512.47 288.21 C463.57,288.03 428.54,288.32 420.48,288.96 C380.95,292.15 347.36,309.10 322.31,338.50 C301.42,363.02 290.54,391.35 289.28,424.50 C288.36,449.06 292.17,467.20 302.97,489.50 C324.17,533.28 366.99,562.60 417.50,567.91 C426.71,568.87 533.41,569.25 534.34,568.32 ZM 669.46 410.39 C690.19,405.04 708.41,386.70 714.55,365.00 C716.74,357.25 717.00,343.91 715.11,336.00 C711.42,320.57 700.99,305.91 687.38,296.99 C676.14,289.64 668.16,287.49 652.50,287.57 C641.09,287.63 638.67,287.95 632.76,290.19 C629.05,291.60 623.50,294.27 620.41,296.12 C614.31,299.80 601.00,313.09 601.00,315.50 C601.00,316.33 600.61,317.00 600.14,317.00 C598.91,317.00 593.45,330.46 592.02,337.00 C591.30,340.28 591.02,346.33 591.33,352.00 C591.95,363.62 592.03,364.19 593.26,365.75 C593.80,366.44 593.98,367.00 593.67,367.00 C592.55,367.00 596.09,375.56 599.67,381.50 C614.17,405.62 642.50,417.34 669.46,410.39 ZM 351.34 705.00 C341.67,703.00 332.64,696.05 328.38,687.35 C326.16,682.80 325.72,680.58 325.78,674.30 C325.92,661.34 331.87,651.96 343.78,645.94 C347.63,643.99 350.06,643.55 357.00,643.53 C364.33,643.50 366.29,643.89 371.24,646.32 C377.03,649.16 382.00,654.24 385.63,661.00 C387.08,663.72 387.50,666.62 387.50,674.00 C387.50,681.38 387.08,684.28 385.63,687.00 C378.52,700.27 364.38,707.69 351.34,705.00 ZM 647.02 379.41 C631.84,375.30 623.80,365.53 623.15,350.41 C622.71,340.11 625.08,334.07 632.13,327.48 C639.17,320.89 643.84,319.05 653.50,319.03 C659.84,319.02 662.54,319.51 666.50,321.37 C686.23,330.66 690.66,356.10 675.19,371.30 C667.12,379.23 657.06,382.12 647.02,379.41 Z" fill="rgb(254,254,254)"/>
</g>
</svg>